<svg xmlns="http://www.w3.org/2000/svg" viewBox="0 0 100 100"><rect width="100" height="100" fill="url(#a)" rx="15"/><linearGradient id="a" x1="0" x2="100" y1="0" y2="100" gradientUnits="userSpaceOnUse"><stop offset="0" stop-color="#0CC"/><stop offset="1" stop-color="#066"/></linearGradient><path fill="#00000033" d="M76.45 20.52 100 44.07V85a15 15 0 0 1-15 15H15A15 15 0 0 1 0 85V72.07l1.87-3.04A1592.7 1592.7 0 0 1 9.89 56.6a493.2 493.2 0 0 1 8.98-13.5l8.85-13.05c2.8-4.17 5.3-7.85 7.5-11.06a651.5 651.5 0 0 1 5.34-7.45c2.05-.57 4.97-.85 8.77-.83a45.88 45.88 0 0 1 11.32 1.52c5.2 1.4 9.58 3.4 13.13 6.03a18 18 0 0 1 2.67 2.26Z"/><path fill="#fff" fill-rule="evenodd" d="M0 85V72.07l1.87-3.04c2.5-3.91 5.17-8.05 8.02-12.43a515.8 515.8 0 0 1 8.98-13.5l8.85-13.05c2.8-4.17 5.3-7.85 7.5-11.06a652.5 652.5 0 0 1 5.34-7.45c2.05-.57 4.97-.85 8.77-.83 3.9.04 7.67.54 11.32 1.52 5.2 1.4 9.58 3.4 13.13 6.03 3.67 2.55 5.63 5.65 5.88 9.29.46 5.82.81 12.61 1.08 20.39A2665.39 2665.39 0 0 1 81.7 100H53.82l.05-7.48-28.3-7.58a612.7 612.7 0 0 0-5.62 9.71C19 96.51 18.03 98.3 17.1 100H15A15 15 0 0 1 0 85Zm45.26-35.34 8.65-12.93.94.25.1 15.28A355 355 0 0 1 55 70.2L35.62 65a335.9 335.9 0 0 1 9.64-15.34Z"/></svg>